 

<svg width="125" height="125" viewBox="0 0 125 125" fill="none" xmlns="http://www.w3.org/2000/svg">
<g id="Group 436">
<rect id="Rectangle 71" x="0.5" y="0.369141" width="124" height="124" fill="#FDE9F4"/>
</g>
<g id="Group 432">
<path id="Vector" d="M1.24994 27.0343H5.88502C6.12757 27.0343 6.36487 26.9637 6.56801 26.8312C6.77115 26.6987 6.93134 26.5099 7.02907 26.2879L8.90001 22.0346H12.4829C12.6734 22.0346 12.8614 21.9911 13.0325 21.9073C13.2036 21.8235 13.3533 21.7017 13.4701 21.5512L21.241 11.5444L30.7773 21.9046C30.9935 22.1559 31.3008 22.311 31.6314 22.3358C31.962 22.3605 32.2889 22.253 32.5402 22.0367C32.7915 21.8205 32.9466 21.5132 32.9714 21.1826C32.9962 20.852 32.8886 20.5251 32.6723 20.2738L29.5151 16.6038L40.1839 3.76338L45.8714 13.1013C45.9829 13.2845 46.1396 13.436 46.3266 13.5411C46.5136 13.6461 46.7244 13.7013 46.9389 13.7012H49.9316L53.4514 19.0359L51.119 21.8673C51.0146 21.994 50.9363 22.14 50.8883 22.297C50.8404 22.4539 50.8239 22.6188 50.8396 22.7822C50.8554 22.9455 50.9032 23.1042 50.9803 23.2491C51.0574 23.394 51.1623 23.5222 51.289 23.6266C51.4156 23.731 51.5616 23.8093 51.7186 23.8573C51.8756 23.9052 52.0404 23.9218 52.2038 23.906C52.3672 23.8902 52.5258 23.8424 52.6707 23.7653C52.8156 23.6882 52.9439 23.5833 53.0482 23.4566L60.77 14.455L66.4515 22.3477C66.5672 22.5086 66.7195 22.6397 66.8959 22.7301C67.0722 22.8206 67.2676 22.8677 67.4658 22.8677H72.7597L77.8013 28.6859C78.0185 28.9359 78.3261 29.0894 78.6564 29.1128C78.9868 29.1363 79.313 29.0276 79.5633 28.8108C79.8136 28.5939 79.9676 28.2866 79.9916 27.9563C80.0155 27.6259 79.9073 27.2996 79.6908 27.049L74.2755 20.7993C74.1581 20.6639 74.013 20.5552 73.85 20.4808C73.687 20.4063 73.5099 20.3678 73.3307 20.3678H68.1061L61.8823 11.7213C61.7727 11.5687 61.63 11.4428 61.4649 11.353C61.2999 11.2632 61.1167 11.2118 60.929 11.2026C60.7415 11.1946 60.5545 11.2284 60.3817 11.3016C60.2088 11.3747 60.0544 11.4854 59.9296 11.6255L55.1453 17.0641L51.6478 11.7628C51.5339 11.5903 51.379 11.4487 51.1969 11.3507C51.0148 11.2527 50.8113 11.2014 50.6045 11.2013H47.6411L41.4085 0.968747C41.305 0.798783 41.1624 0.655965 40.9926 0.552153C40.8228 0.448341 40.6307 0.386529 40.4323 0.371852C40.234 0.358868 40.0355 0.392644 39.8527 0.470456C39.6698 0.548269 39.5079 0.667941 39.3798 0.81983L27.8084 14.7461L22.0375 8.77046C21.913 8.64163 21.7623 8.54106 21.5956 8.47556C21.4289 8.41007 21.25 8.38117 21.0711 8.39084C20.8922 8.40051 20.7175 8.44851 20.5588 8.53159C20.4001 8.61467 20.2611 8.7309 20.1513 8.87239L11.8711 19.5347H8.08432C7.84177 19.5347 7.60447 19.6053 7.40134 19.7378C7.1982 19.8704 7.03801 20.0591 6.94028 20.2811L5.06933 24.5345H1.24994C0.918434 24.5345 0.600507 24.6661 0.366098 24.9006C0.13169 25.135 0 25.4529 0 25.7844C0 26.1159 0.13169 26.4338 0.366098 26.6682C0.600507 26.9026 0.918434 27.0343 1.24994 27.0343Z" fill="#EB268F"/>
<path id="Vector_2" d="M39.9977 35.9917C41.481 35.9917 42.9309 35.5518 44.1642 34.7278C45.3976 33.9037 46.3588 32.7324 46.9264 31.362C47.4941 29.9917 47.6426 28.4837 47.3532 27.029C47.0638 25.5742 46.3496 24.2379 45.3007 23.189C44.2519 22.1402 42.9156 21.4259 41.4608 21.1365C40.006 20.8472 38.4981 20.9957 37.1277 21.5633C35.7573 22.1309 34.586 23.0922 33.762 24.3255C32.9379 25.5588 32.498 27.0088 32.498 28.4921C32.5003 30.4804 33.2911 32.3867 34.6971 33.7926C36.1031 35.1986 38.0093 35.9895 39.9977 35.9917Z" fill="#EB268F"/>
<path id="Vector_3" d="M16.8738 33.4919C15.8793 33.4919 14.9255 33.887 14.2223 34.5902C13.5191 35.2935 13.124 36.2472 13.124 37.2418C13.124 38.2363 13.5191 39.1901 14.2223 39.8933C14.9255 40.5965 15.8793 40.9916 16.8738 40.9916H28.7483V45.6983L31.2481 44.8874V39.7416C31.2481 39.4101 31.1164 39.0922 30.882 38.8578C30.6476 38.6234 30.3297 38.4917 29.9982 38.4917H16.8738C16.5423 38.4917 16.2244 38.36 15.99 38.1256C15.7556 37.8912 15.6239 37.5733 15.6239 37.2418C15.6239 36.9103 15.7556 36.5923 15.99 36.3579C16.2244 36.1235 16.5423 35.9918 16.8738 35.9918H33.4058C32.5905 35.2749 31.8967 34.4307 31.3512 33.4919H16.8738Z" fill="#EB268F"/>
<path id="Vector_4" d="M66.8717 37.2418C66.8706 36.2476 66.4752 35.2944 65.7722 34.5914C65.0692 33.8884 64.116 33.493 63.1219 33.4919H48.6445C48.099 34.4307 47.4052 35.2749 46.5898 35.9918H63.1219C63.4534 35.9918 63.7713 36.1235 64.0057 36.3579C64.2401 36.5923 64.3718 36.9103 64.3718 37.2418C64.3718 37.5733 64.2401 37.8912 64.0057 38.1256C63.7713 38.36 63.4534 38.4917 63.1219 38.4917H49.9975C49.666 38.4917 49.3481 38.6234 49.1137 38.8578C48.8793 39.0922 48.7476 39.4101 48.7476 39.7416V44.8874L51.2474 45.6983V40.9916H63.1219C64.116 40.9905 65.0692 40.5951 65.7722 39.8921C66.4752 39.1891 66.8706 38.2359 66.8717 37.2418Z" fill="#EB268F"/>
<path id="Vector_5" d="M78.7461 72.8649C76.6827 72.8138 74.6329 73.2116 72.7384 74.0306C70.5574 74.9655 68.2009 75.4205 65.8286 75.3648C63.4564 75.4205 61.0999 74.9655 58.9189 74.0306C57.0244 73.2116 54.9746 72.8138 52.9112 72.8649C50.8481 72.8138 48.7986 73.2115 46.9044 74.0306C44.7236 74.9655 42.3673 75.4205 39.9953 75.3648C37.6233 75.4205 35.2671 74.9655 33.0864 74.0306C31.1925 73.2115 29.1431 72.8138 27.0803 72.8649C25.0174 72.8138 22.9681 73.2115 21.0741 74.0306C18.8933 74.9655 16.537 75.4205 14.1649 75.3648C11.793 75.4205 9.43677 74.9655 7.25608 74.0306C5.36213 73.2115 3.3128 72.8138 1.24994 72.8649C0.918439 72.8649 0.600522 72.7332 0.366117 72.4988C0.131711 72.2644 1.65737e-05 71.9465 0 71.615L0 76.6147C1.65737e-05 76.9462 0.131711 77.2642 0.366117 77.4986C0.600522 77.733 0.918439 77.8647 1.24994 77.8647C3.3128 77.8135 5.36214 78.2113 7.25611 79.0304C9.43678 79.9652 11.793 80.4202 14.1649 80.3646C16.537 80.4202 18.8933 79.9652 21.0741 79.0304C22.968 78.2113 25.0174 77.8135 27.0803 77.8647C29.1431 77.8135 31.1925 78.2113 33.0864 79.0304C35.2671 79.9652 37.6233 80.4202 39.9953 80.3646C42.3673 80.4202 44.7236 79.9652 46.9044 79.0304C48.7986 78.2113 50.8481 77.8135 52.9112 77.8647C54.9746 77.8136 57.0244 78.2113 58.9189 79.0304C61.0999 79.9653 63.4564 80.4203 65.8286 80.3646C68.2009 80.4203 70.5574 79.9653 72.7384 79.0304C74.6329 78.2113 76.6827 77.8136 78.7461 77.8647C79.0776 77.8647 79.3955 77.733 79.6299 77.4986C79.8643 77.2642 79.996 76.9462 79.996 76.6147V71.615C79.996 71.9465 79.8643 72.2644 79.6299 72.4988C79.3955 72.7332 79.0776 72.8649 78.7461 72.8649Z" fill="#EB268F"/>
<path id="Vector_6" d="M78.7461 65.653C76.3737 65.5973 74.0172 66.0523 71.836 66.9872C69.9417 67.8063 67.8919 68.204 65.8286 68.1529C63.7653 68.204 61.7155 67.8062 59.821 66.9872C57.64 66.0523 55.2835 65.5973 52.9112 65.653C50.539 65.5973 48.1826 66.0523 46.0018 66.9872C44.1077 67.8063 42.0582 68.204 39.9953 68.1529C37.9324 68.204 35.8831 67.8063 33.9891 66.9872C31.8084 66.0523 29.4522 65.5973 27.0803 65.653C24.7083 65.5973 22.3521 66.0523 20.1714 66.9872C18.2774 67.8063 16.2279 68.204 14.1649 68.1529C12.1021 68.204 10.0527 67.8063 8.15875 66.9872C5.97808 66.0523 3.62189 65.5973 1.24994 65.653C0.918439 65.653 0.600522 65.7847 0.366117 66.0191C0.131711 66.2535 1.65737e-05 66.5714 0 66.9029L0 71.9027C1.65737e-05 71.5712 0.131711 71.2533 0.366117 71.0189C0.600522 70.7845 0.918439 70.6528 1.24994 70.6528C3.6219 70.5971 5.9781 71.0521 8.15878 71.9869C10.0527 72.806 12.1021 73.2038 14.1649 73.1526C16.2279 73.2038 18.2773 72.806 20.1714 71.9869C22.3521 71.0521 24.7083 70.5971 27.0803 70.6528C29.4522 70.5971 31.8084 71.0521 33.9891 71.9869C35.8831 72.806 37.9324 73.2038 39.9953 73.1526C42.0582 73.2038 44.1077 72.806 46.0018 71.9869C48.1826 71.0521 50.539 70.5971 52.9112 70.6528C55.2835 70.597 57.64 71.052 59.821 71.9869C61.7155 72.806 63.7653 73.2037 65.8286 73.1526C67.8919 73.2038 69.9417 72.806 71.836 71.9869C74.0172 71.0521 76.3737 70.5971 78.7461 70.6528C79.0776 70.6528 79.3955 70.7845 79.6299 71.0189C79.8643 71.2533 79.996 71.5712 79.996 71.9027V66.9029C79.996 66.5714 79.8643 66.2535 79.6299 66.0191C79.3955 65.7847 79.0776 65.653 78.7461 65.653Z" fill="#EB268F"/>
<path id="Vector_7" d="M19.2679 64.6551C21.7359 63.6057 24.3988 63.0933 27.08 63.1519C29.7609 63.0934 32.4236 63.6056 34.8915 64.6545C36.4978 65.3608 38.241 65.7014 39.995 65.6518C41.7489 65.7014 43.4919 65.3609 45.0982 64.6551C47.5664 63.6057 50.2296 63.0933 52.9109 63.1519C55.5922 63.0933 58.2552 63.6055 60.7234 64.6545C61.2329 64.8517 61.7062 65.0327 62.215 65.1863C64.2153 61.8548 65.3837 58.0905 65.6212 54.2119C65.6272 53.9431 65.5465 53.6795 65.3908 53.4603C65.2352 53.2411 65.013 53.0779 64.7573 52.9949L41.2477 45.3691V58.9224C41.2477 59.2539 41.116 59.5718 40.8816 59.8062C40.6472 60.0406 40.3293 60.1723 39.9978 60.1723C39.6663 60.1723 39.3483 60.0406 39.1139 59.8062C38.8795 59.5718 38.7478 59.2539 38.7478 58.9224V45.3691L15.2382 52.9949C14.9825 53.0778 14.7603 53.241 14.6047 53.4603C14.4491 53.6795 14.3683 53.9431 14.3743 54.2119C14.6118 58.0902 15.78 61.8543 17.7802 65.1855C18.2875 65.0322 18.7597 64.8517 19.2679 64.6551Z" fill="#EB268F"/>
 
</g>
</svg>

