<svg width="125" height="125" viewBox="0 0 125 125" fill="none" xmlns="http://www.w3.org/2000/svg">
<g id="Group 435">
<g id="Group 262">
<rect id="Rectangle 71" x="0.5" y="0.369141" width="124" height="124" fill="#FDE9F4"/>
</g>
<g id="Group 434">
<path id="Vector" d="M59.1645 31.2484C59.2175 31.2869 59.2569 31.3411 59.2771 31.4034C59.2973 31.4657 59.2973 31.5327 59.2771 31.595L57.6927 36.4714C57.6725 36.5337 57.6724 36.6007 57.6927 36.663C57.7129 36.7253 57.7523 36.7795 57.8053 36.818C57.8582 36.8565 57.922 36.8772 57.9875 36.8772C58.0529 36.8772 58.1167 36.8565 58.1697 36.818L62.3178 33.8042C62.3707 33.7657 62.4345 33.745 62.5 33.745C62.5654 33.745 62.6292 33.7657 62.6822 33.8042L66.8303 36.818C66.8833 36.8565 66.9471 36.8772 67.0125 36.8772C67.078 36.8772 67.1417 36.8564 67.1947 36.818C67.2477 36.7795 67.2871 36.7252 67.3073 36.663C67.3275 36.6007 67.3275 36.5337 67.3073 36.4714L65.7228 31.595C65.7026 31.5327 65.7026 31.4657 65.7228 31.4034C65.7431 31.3411 65.7825 31.2869 65.8354 31.2484L69.9836 28.2346C70.0366 28.1961 70.076 28.1419 70.0962 28.0796C70.1164 28.0174 70.1164 27.9503 70.0962 27.8881C70.0759 27.8258 70.0365 27.7716 69.9836 27.7331C69.9306 27.6946 69.8668 27.6739 69.8014 27.6739H64.674C64.6086 27.6739 64.5448 27.6532 64.4918 27.6147C64.4389 27.5762 64.3994 27.522 64.3792 27.4597L62.7948 22.5833C62.7746 22.5211 62.7351 22.4668 62.6822 22.4283C62.6292 22.3899 62.5654 22.3691 62.5 22.3691C62.4345 22.3691 62.3707 22.3899 62.3178 22.4283C62.2648 22.4668 62.2254 22.5211 62.2052 22.5833L60.6207 27.4598C60.6005 27.522 60.5611 27.5763 60.5081 27.6148C60.4552 27.6533 60.3914 27.674 60.3259 27.674H55.1986C55.1332 27.674 55.0694 27.6947 55.0165 27.7332C54.9635 27.7717 54.9241 27.8259 54.9038 27.8882C54.8836 27.9504 54.8836 28.0175 54.9038 28.0797C54.9241 28.142 54.9635 28.1962 55.0164 28.2347L59.1645 31.2484Z" fill="#EB268F"/>
<path id="Vector_2" d="M48.573 38.7849L47.3214 34.9332C47.2963 34.8558 47.2963 34.7724 47.3214 34.695C47.3466 34.6175 47.3956 34.5501 47.4615 34.5022L50.7379 32.1218C50.8038 32.0739 50.8528 32.0065 50.878 31.929C50.9031 31.8516 50.9031 31.7682 50.878 31.6908C50.8528 31.6134 50.8038 31.5459 50.7379 31.4981C50.6721 31.4502 50.5928 31.4245 50.5114 31.4245H46.4615C46.3801 31.4245 46.3007 31.3987 46.2349 31.3508C46.169 31.303 46.12 31.2355 46.0949 31.1581L44.8433 27.3063C44.8181 27.2289 44.7691 27.1615 44.7033 27.1136C44.6374 27.0658 44.5581 27.04 44.4767 27.04C44.3953 27.04 44.316 27.0658 44.2502 27.1136C44.1843 27.1615 44.1353 27.2289 44.1101 27.3063L42.8586 31.1581C42.8334 31.2355 42.7844 31.303 42.7185 31.3508C42.6527 31.3987 42.5734 31.4245 42.492 31.4245H38.4421C38.3607 31.4245 38.2814 31.4502 38.2155 31.4981C38.1497 31.5459 38.1007 31.6134 38.0755 31.6908C38.0504 31.7682 38.0504 31.8516 38.0755 31.929C38.1007 32.0065 38.1497 32.0739 38.2155 32.1218L41.4921 34.5022C41.5579 34.5501 41.6069 34.6175 41.6321 34.695C41.6572 34.7724 41.6572 34.8558 41.6321 34.9332L40.3805 38.7849C40.3554 38.8624 40.3554 38.9457 40.3805 39.0232C40.4057 39.1006 40.4547 39.168 40.5205 39.2159C40.5864 39.2637 40.6657 39.2895 40.7471 39.2895C40.8285 39.2895 40.9078 39.2637 40.9737 39.2159L44.2501 36.8354C44.316 36.7876 44.3953 36.7618 44.4767 36.7618C44.5581 36.7618 44.6374 36.7876 44.7032 36.8354L47.9798 39.2159C48.0456 39.2638 48.1249 39.2895 48.2064 39.2896C48.2878 39.2896 48.3671 39.2638 48.433 39.216C48.4989 39.1681 48.5479 39.1006 48.573 39.0232C48.5982 38.9458 48.5982 38.8624 48.573 38.7849Z" fill="#EB268F"/>
<path id="Vector_3" d="M84.6198 38.7849L83.3684 34.9332C83.3432 34.8558 83.3432 34.7724 83.3683 34.695C83.3935 34.6175 83.4425 34.5501 83.5084 34.5022L86.7848 32.1218C86.8507 32.0739 86.8997 32.0065 86.9249 31.929C86.95 31.8516 86.95 31.7682 86.9249 31.6908C86.8997 31.6134 86.8507 31.5459 86.7848 31.4981C86.719 31.4502 86.6397 31.4245 86.5583 31.4245H82.5083C82.4269 31.4245 82.3476 31.3987 82.2818 31.3508C82.2159 31.303 82.1669 31.2355 82.1417 31.1581L80.8902 27.3063C80.865 27.2289 80.816 27.1615 80.7501 27.1136C80.6843 27.0658 80.605 27.04 80.5236 27.04C80.4422 27.04 80.3629 27.0658 80.297 27.1136C80.2312 27.1615 80.1822 27.2289 80.157 27.3063L78.9055 31.1581C78.8803 31.2355 78.8313 31.303 78.7654 31.3508C78.6996 31.3987 78.6203 31.4245 78.5389 31.4245H74.489C74.4076 31.4245 74.3283 31.4502 74.2624 31.4981C74.1965 31.5459 74.1475 31.6134 74.1224 31.6908C74.0972 31.7682 74.0972 31.8516 74.1224 31.929C74.1475 32.0065 74.1966 32.0739 74.2624 32.1218L77.5388 34.5022C77.6047 34.5501 77.6537 34.6175 77.6789 34.695C77.704 34.7724 77.704 34.8558 77.6789 34.9332L76.4273 38.7849C76.4022 38.8624 76.4022 38.9458 76.4273 39.0232C76.4525 39.1006 76.5015 39.1681 76.5674 39.2159C76.6332 39.2637 76.7126 39.2895 76.794 39.2895C76.8754 39.2895 76.9547 39.2637 77.0205 39.2159L80.297 36.8354C80.3628 36.7876 80.4421 36.7618 80.5235 36.7618C80.6049 36.7618 80.6842 36.7876 80.7501 36.8354L84.0265 39.2159C84.0924 39.2638 84.1717 39.2896 84.2531 39.2896C84.3346 39.2897 84.4139 39.2639 84.4798 39.216C84.5457 39.1682 84.5947 39.1007 84.6199 39.0232C84.645 38.9458 84.645 38.8624 84.6198 38.7849Z" fill="#EB268F"/>
<path id="Vector_4" d="M77.2777 41.0359H47.7221C47.5158 41.0359 47.318 41.1178 47.1721 41.2637C47.0263 41.4096 46.9443 41.6074 46.9443 41.8137V102.369H55.4523V86.3692H69.5475V102.369H78.0554V41.8137C78.0554 41.6074 77.9735 41.4096 77.8276 41.2637C77.6818 41.1178 77.4839 41.0359 77.2777 41.0359ZM60.7221 75.5914C60.7221 75.6644 60.7077 75.7366 60.6798 75.804C60.6519 75.8714 60.611 75.9327 60.5594 75.9843C60.5078 76.0359 60.4466 76.0768 60.3792 76.1047C60.3118 76.1326 60.2395 76.147 60.1666 76.147H52.3888C52.2414 76.147 52.1001 76.0885 51.9959 75.9843C51.8918 75.8801 51.8332 75.7388 51.8332 75.5914V67.8137C51.8332 67.6663 51.8918 67.525 51.9959 67.4208C52.1001 67.3166 52.2414 67.2581 52.3888 67.2581H60.1666C60.2395 67.2581 60.3118 67.2725 60.3792 67.3004C60.4466 67.3283 60.5078 67.3692 60.5594 67.4208C60.611 67.4724 60.6519 67.5337 60.6798 67.6011C60.7077 67.6685 60.7221 67.7407 60.7221 67.8137V75.5914ZM60.7221 59.147C60.7221 59.22 60.7077 59.2922 60.6798 59.3596C60.6519 59.427 60.611 59.4882 60.5594 59.5398C60.5078 59.5914 60.4466 59.6323 60.3792 59.6603C60.3118 59.6882 60.2395 59.7026 60.1666 59.7026H52.3888C52.2414 59.7026 52.1001 59.644 51.9959 59.5398C51.8918 59.4356 51.8332 59.2943 51.8332 59.147V51.3692C51.8332 51.2219 51.8918 51.0806 51.9959 50.9764C52.1001 50.8722 52.2414 50.8137 52.3888 50.8137H60.1666C60.2395 50.8137 60.3118 50.828 60.3792 50.856C60.4466 50.8839 60.5078 50.9248 60.5594 50.9764C60.611 51.028 60.6519 51.0892 60.6798 51.1566C60.7077 51.224 60.7221 51.2963 60.7221 51.3692V59.147ZM73.1666 75.5914C73.1666 75.7388 73.108 75.8801 73.0038 75.9843C72.8997 76.0885 72.7583 76.147 72.611 76.147H64.8332C64.6859 76.147 64.5446 76.0885 64.4404 75.9843C64.3362 75.8801 64.2777 75.7388 64.2777 75.5914V67.8137C64.2777 67.6663 64.3362 67.525 64.4404 67.4208C64.5446 67.3166 64.6859 67.2581 64.8332 67.2581H72.611C72.7583 67.2581 72.8997 67.3166 73.0038 67.4208C73.108 67.525 73.1666 67.6663 73.1666 67.8137V75.5914ZM73.1666 59.147C73.1666 59.2943 73.108 59.4356 73.0038 59.5398C72.8997 59.644 72.7583 59.7026 72.611 59.7026H64.8332C64.6859 59.7026 64.5446 59.644 64.4404 59.5398C64.3362 59.4356 64.2777 59.2943 64.2777 59.147V51.3692C64.2777 51.2219 64.3362 51.0806 64.4404 50.9764C64.5446 50.8722 64.6859 50.8137 64.8332 50.8137H72.611C72.7583 50.8137 72.8997 50.8722 73.0038 50.9764C73.108 51.0806 73.1666 51.2219 73.1666 51.3692V59.147Z" fill="#EB268F"/>
<path id="Vector_5" d="M101.723 51.7024H81.9448C81.7385 51.7024 81.5407 51.7843 81.3948 51.9302C81.2489 52.0761 81.167 52.2739 81.167 52.4802V102.369H102.5V52.4802C102.5 52.2739 102.418 52.0761 102.273 51.9302C102.127 51.7843 101.929 51.7024 101.723 51.7024ZM96.2781 94.7024C96.2781 94.8497 96.2196 94.991 96.1154 95.0952C96.0112 95.1994 95.8699 95.2579 95.7225 95.2579H87.9448C87.7974 95.2579 87.6561 95.1994 87.5519 95.0952C87.4477 94.991 87.3892 94.8497 87.3892 94.7024V86.9246C87.3892 86.7773 87.4477 86.636 87.5519 86.5318C87.6561 86.4276 87.7974 86.3691 87.9448 86.3691H95.7225C95.8699 86.3691 96.0112 86.4276 96.1154 86.5318C96.2196 86.636 96.2781 86.7773 96.2781 86.9246V94.7024ZM96.2781 80.9246C96.2781 81.072 96.2196 81.2133 96.1154 81.3175C96.0112 81.4216 95.8699 81.4802 95.7225 81.4802H87.9448C87.7974 81.4802 87.6561 81.4216 87.5519 81.3175C87.4477 81.2133 87.3892 81.072 87.3892 80.9246V73.1468C87.3892 72.9995 87.4477 72.8582 87.5519 72.754C87.6561 72.6498 87.7974 72.5913 87.9448 72.5913H95.7225C95.8699 72.5913 96.0112 72.6498 96.1154 72.754C96.2196 72.8582 96.2781 72.9995 96.2781 73.1468V80.9246ZM96.2781 67.1468C96.2781 67.2942 96.2196 67.4355 96.1154 67.5397C96.0112 67.6439 95.8699 67.7024 95.7225 67.7024H87.9448C87.7974 67.7024 87.6561 67.6439 87.5519 67.5397C87.4477 67.4355 87.3892 67.2942 87.3892 67.1468V59.3691C87.3892 59.2217 87.4477 59.0804 87.5519 58.9762C87.6561 58.872 87.7974 58.8135 87.9448 58.8135H95.7225C95.8699 58.8135 96.0112 58.872 96.1154 58.9762C96.2196 59.0804 96.2781 59.2217 96.2781 59.3691V67.1468Z" fill="#EB268F"/>
<path id="Vector_6" d="M43.0556 51.7024H23.2778C23.0715 51.7024 22.8737 51.7843 22.7278 51.9302C22.5819 52.0761 22.5 52.2739 22.5 52.4802V101.591C22.5 101.798 22.5819 101.995 22.7278 102.141C22.8737 102.287 23.0715 102.369 23.2778 102.369H43.8333V52.4802C43.8333 52.2739 43.7514 52.0761 43.6055 51.9302C43.4597 51.7843 43.2618 51.7024 43.0556 51.7024ZM37.6111 94.7024C37.6111 94.8497 37.5526 94.991 37.4484 95.0952C37.3442 95.1994 37.2029 95.2579 37.0556 95.2579H29.2778C29.1304 95.2579 28.9891 95.1994 28.8849 95.0952C28.7808 94.991 28.7222 94.8497 28.7222 94.7024V86.9246C28.7222 86.7773 28.7808 86.636 28.8849 86.5318C28.9891 86.4276 29.1304 86.3691 29.2778 86.3691H37.0556C37.2029 86.3691 37.3442 86.4276 37.4484 86.5318C37.5526 86.636 37.6111 86.7773 37.6111 86.9246V94.7024ZM37.6111 80.9246C37.6111 81.072 37.5526 81.2133 37.4484 81.3175C37.3442 81.4216 37.2029 81.4802 37.0556 81.4802H29.2778C29.1304 81.4802 28.9891 81.4216 28.8849 81.3175C28.7808 81.2133 28.7222 81.072 28.7222 80.9246V73.1468C28.7222 72.9995 28.7808 72.8582 28.8849 72.754C28.9891 72.6498 29.1304 72.5913 29.2778 72.5913H37.0556C37.2029 72.5913 37.3442 72.6498 37.4484 72.754C37.5526 72.8582 37.6111 72.9995 37.6111 73.1468V80.9246ZM37.6111 67.1468C37.6111 67.2942 37.5526 67.4355 37.4484 67.5397C37.3442 67.6439 37.2029 67.7024 37.0556 67.7024H29.2778C29.1304 67.7024 28.9891 67.6439 28.8849 67.5397C28.7808 67.4355 28.7222 67.2942 28.7222 67.1468V59.3691C28.7222 59.2217 28.7808 59.0804 28.8849 58.9762C28.9891 58.872 29.1304 58.8135 29.2778 58.8135H37.0556C37.2029 58.8135 37.3442 58.872 37.4484 58.9762C37.5526 59.0804 37.6111 59.2217 37.6111 59.3691V67.1468Z" fill="#EB268F"/>
</g>
</g>
</svg>
