<svg width="125" height="125" viewBox="0 0 125 125" fill="none" xmlns="http://www.w3.org/2000/svg">
<g id="Group 433">
<rect id="Rectangle 71" x="0.5" y="0.369141" width="124" height="124" fill="#FDE9F4"/>
<g id="Group 432">
<path id="Vector" fill-rule="evenodd" clip-rule="evenodd" d="M42.1553 63.4865V52.9308C38.2004 53.9008 35.3047 57.4839 35.3047 61.6493V66.1395L41.6502 63.5704C41.8086 63.5062 41.981 63.4768 42.1553 63.4865ZM49.9172 66.5621V52.675H44.4965V64.3674L49.9172 66.5621ZM65.1741 67.3654V52.675H52.2584V67.5101L58.5374 70.0523L65.1741 67.3654ZM72.9361 64.2227V52.6762L67.5154 52.675V66.4174L72.9361 64.2227ZM81.7703 66.1395V61.6493C81.7703 57.6196 79.0587 54.123 75.2773 53.0266V63.5217L81.7703 66.1395ZM25.9332 90.2426C26.9972 90.5085 28.0477 90.4789 29.0604 90.0824V80.6994C25.8575 79.4457 22.221 81.7976 22.221 85.391C22.2212 87.6875 23.7708 89.659 25.9332 90.2426ZM87.9979 78.2594C87.3839 78.4169 86.8084 78.6459 86.2814 78.9363C85.907 79.1419 85.6756 79.5337 85.6752 79.9605L85.6733 90.8209C85.6731 91.2909 85.9503 91.6961 86.3501 91.8824C87.6175 92.5171 88.8248 92.8279 90.2636 92.7444V102.369L75.4248 96.3612C75.153 96.2511 74.8401 96.2424 74.547 96.3612L59.7082 102.369V72.1013L74.986 65.9156L90.2636 72.1011V78.037C89.4934 77.9924 88.7467 78.0675 87.9979 78.2594ZM89.8289 80.3658C89.183 80.3658 88.5906 80.4739 88.0145 80.6994V90.0824C91.2173 91.3361 94.854 88.9844 94.854 85.3908C94.854 82.6151 92.6045 80.3658 89.8289 80.3658ZM67.1872 25.9517C62.4105 21.175 54.6646 21.1749 49.8879 25.9517C45.1111 30.7286 45.1111 38.4741 49.8879 43.251C54.6648 48.0279 62.4103 48.0279 67.1872 43.251C71.9641 38.4741 71.9639 30.7286 67.1872 25.9517ZM49.3469 45.9114H35.8886C35.0395 45.9114 34.3409 45.2125 34.3409 44.3637V41.6449C34.3409 40.7958 35.0397 40.0972 35.8886 40.0972H45.0361C45.965 42.3769 47.4558 44.3732 49.3469 45.9114ZM72.039 40.0972H81.1867C82.0358 40.0972 82.7345 40.796 82.7345 41.6449V44.3637C82.7345 45.2125 82.0356 45.9114 81.1867 45.9114H67.7282C69.6193 44.373 71.1099 42.3773 72.039 40.0972ZM28.3038 50.2485C26.0684 48.0146 22.4059 48.0158 20.1689 50.2563C17.9426 52.4859 17.9428 56.1478 20.1751 58.3801L24.2403 62.4453L28.3054 58.3801C30.5391 56.146 30.5395 52.4842 28.3038 50.2485ZM21.2583 51.2039C23.9092 48.5531 28.4574 50.4421 28.4574 54.1859C28.4574 57.9297 23.9092 59.8186 21.2583 57.1678C19.6113 55.5207 19.6111 52.851 21.2583 51.2039ZM24.2403 52.31C25.2766 52.31 26.1162 53.1495 26.1162 54.1859C26.1162 55.853 24.0916 56.6906 22.9136 55.5125C21.7355 54.3345 22.5729 52.31 24.2403 52.31ZM91.3363 57.1327V64.2474C91.3363 64.894 90.8123 65.418 90.1657 65.418C89.5191 65.418 88.9951 64.894 88.9951 64.2474V45.824C88.9951 45.1774 89.5191 44.6534 90.1657 44.6534L105.125 44.654C106.255 44.6549 106.727 46.1161 105.806 46.7751L91.3363 57.1327ZM26.8113 72.1013C31.9039 70.0394 36.9964 67.9776 42.0891 65.9158L57.367 72.1013V102.369L42.5281 96.3612C42.2563 96.2511 41.9434 96.2424 41.6502 96.3612L26.8113 102.369V92.7444C28.2506 92.8279 29.4573 92.5175 30.7249 91.8826C31.1246 91.6963 31.4017 91.2911 31.4017 90.8211V79.9607C31.4013 79.5485 31.1804 79.1489 30.7935 78.9365C29.5917 78.2754 28.1928 77.9572 26.8113 78.0374V72.1013Z" fill="#EB268F"/>
</g>
</g>
</svg>
