<svg width="80" height="81" viewBox="0 0 80 81" fill="none" xmlns="http://www.w3.org/2000/svg">
<g id="Group 433">
<rect id="Rectangle 71" x="0.5" y="0.369141" width="124" height="124" fill="#FDE9F4"/>
</g>
<g id="Group 432">
<g id="majesticons:map-simple-destination">
<path id="Vector" fill-rule="evenodd" clip-rule="evenodd" d="M28.1503 10.9291C28.6394 10.6033 29.206 10.4125 29.7925 10.3762C30.3791 10.3399 30.9648 10.4594 31.4903 10.7224L50.0003 19.9757L68.5103 10.7224C69.0184 10.4685 69.5829 10.3487 70.1503 10.3742C70.7177 10.3998 71.2692 10.5699 71.7523 10.8684C72.2355 11.167 72.6344 11.584 72.9112 12.08C73.1879 12.576 73.3334 13.1344 73.3337 13.7024V53.7024C73.3337 54.251 73.1984 54.7912 72.9396 55.275C72.6809 55.7588 72.3067 56.1712 71.8503 56.4757L51.8503 69.8091C51.3612 70.1349 50.7947 70.3256 50.2081 70.3619C49.6216 70.3982 49.0359 70.2788 48.5103 70.0157L30.0003 60.7624L11.4903 70.0157C10.9823 70.2696 10.4177 70.3895 9.85035 70.3639C9.28295 70.3384 8.7315 70.1682 8.24831 69.8697C7.76512 69.5712 7.36622 69.1541 7.08947 68.6582C6.81272 68.1622 6.6673 67.6037 6.66699 67.0357V27.0357C6.66691 26.4871 6.80225 25.9469 7.06101 25.4631C7.31977 24.9793 7.69394 24.5669 8.15033 24.2624L28.1503 10.9291ZM16.667 40.3691C16.667 41.2531 17.0182 42.101 17.6433 42.7261C18.2684 43.3512 19.1163 43.7024 20.0003 43.7024C20.8844 43.7024 21.7322 43.3512 22.3573 42.7261C22.9825 42.101 23.3337 41.2531 23.3337 40.3691C23.3337 39.485 22.9825 38.6372 22.3573 38.012C21.7322 37.3869 20.8844 37.0357 20.0003 37.0357C19.1163 37.0357 18.2684 37.3869 17.6433 38.012C17.0182 38.6372 16.667 39.485 16.667 40.3691ZM33.3337 43.7024C32.4496 43.7024 31.6018 43.3512 30.9766 42.7261C30.3515 42.101 30.0003 41.2531 30.0003 40.3691C30.0003 39.485 30.3515 38.6372 30.9766 38.012C31.6018 37.3869 32.4496 37.0357 33.3337 37.0357C34.2177 37.0357 35.0656 37.3869 35.6907 38.012C36.3158 38.6372 36.667 39.485 36.667 40.3691V40.3724C36.667 41.2565 36.3158 42.1043 35.6907 42.7294C35.0656 43.3545 34.2177 43.7057 33.3337 43.7057V43.7024ZM49.0237 31.3424C48.7162 31.024 48.3484 30.7701 47.9417 30.5954C47.535 30.4207 47.0976 30.3287 46.655 30.3249C46.2124 30.3211 45.7735 30.4054 45.3638 30.573C44.9542 30.7406 44.582 30.9881 44.269 31.3011C43.956 31.6141 43.7085 31.9862 43.5409 32.3959C43.3733 32.8055 43.289 33.2445 43.2928 33.6871C43.2967 34.1297 43.3886 34.5671 43.5633 34.9738C43.738 35.3804 43.992 35.7482 44.3103 36.0557L48.6203 40.3691L44.3103 44.6791C43.7031 45.3077 43.3671 46.1497 43.3747 47.0237C43.3823 47.8977 43.7329 48.7338 44.3509 49.3518C44.969 49.9698 45.805 50.3204 46.679 50.328C47.553 50.3356 48.395 49.9996 49.0237 49.3924L53.3337 45.0824L57.6437 49.3924C58.2723 49.9996 59.1143 50.3356 59.9883 50.328C60.8623 50.3204 61.6984 49.9698 62.3164 49.3518C62.9344 48.7338 63.285 47.8977 63.2926 47.0237C63.3002 46.1497 62.9642 45.3077 62.357 44.6791L58.047 40.3691L62.357 36.0591C62.9642 35.4304 63.3002 34.5884 63.2926 33.7144C63.285 32.8404 62.9344 32.0044 62.3164 31.3863C61.6984 30.7683 60.8623 30.4178 59.9883 30.4102C59.1143 30.4026 58.2723 30.7385 57.6437 31.3457L53.3337 35.6557L49.0237 31.3457V31.3424Z" fill="#EB268F"/>
</g>
</g>
 
</svg>
