<svg width="97" height="96" viewBox="0 0 97 96" fill="none" xmlns="http://www.w3.org/2000/svg">
<path d="M14.7112 50.4616C15.0964 52.4708 15.4975 54.3835 15.9113 56.204C16.1295 57.1645 17.2594 57.5905 18.0534 57.0074C23.1191 53.2869 33.542 46.5966 48.2864 41.9574C48.5535 41.8734 48.8417 41.8734 49.1088 41.9574C63.8532 46.5965 74.2761 53.2869 79.3417 57.0074C80.1358 57.5905 81.2656 57.1645 81.4839 56.204C81.8976 54.3835 82.2988 52.4708 82.684 50.4616C82.7779 49.9717 82.6003 49.4702 82.217 49.1511C79.4836 46.8749 67.7497 37.7318 49.109 31.8667C48.8419 31.7826 48.5533 31.7826 48.2862 31.8667C29.6455 37.7316 17.9117 46.8749 15.1781 49.151C14.7949 49.4702 14.6174 49.9717 14.7112 50.4616Z" fill="#EB268F"/>
<path d="M80.2123 61.3837C80.3554 60.8455 80.1443 60.2856 79.7039 59.9448C79.7016 59.943 79.6992 59.9412 79.6967 59.9393C75.8398 56.9228 65.3777 49.5252 49.76 44.3917L49.7521 78.02C49.7519 78.6048 49.2777 79.0788 48.6929 79.0787C48.1081 79.0786 47.6341 78.6043 47.6342 78.0195L47.6422 44.3913C32.022 49.5175 21.5566 56.9099 17.6983 59.9248C17.6958 59.9266 17.6935 59.9284 17.691 59.9303C17.2505 60.2707 17.0392 60.8306 17.1819 61.3689C23.1263 83.7786 30.8558 89.8444 32.6226 90.9762C32.8433 91.1177 33.0991 91.193 33.3613 91.193L47.6313 91.1963L47.6323 86.7146C47.6326 86.1298 48.1067 85.6558 48.6915 85.6559C49.2763 85.656 49.7504 86.1303 49.7502 86.715L49.7492 91.1968L64.0192 91.2001C64.2813 91.2002 64.5371 91.1249 64.758 90.9837C66.5251 89.8527 74.2574 83.7905 80.2123 61.3837Z" fill="#EB268F"/>
<path d="M26.4003 20.9958L26.3965 39.0374C31.9206 35.9204 39.0589 32.548 47.6473 29.8471C47.9851 29.74 48.3376 29.6864 48.6938 29.6864C49.0502 29.6864 49.4028 29.74 49.7415 29.8471C58.3314 32.5491 65.4721 35.9216 70.996 39.0386L70.9998 21.0069C70.9998 20.6544 70.7594 20.3491 70.4168 20.2669L48.8793 15.0869C48.7622 15.0595 48.6401 15.0595 48.5242 15.0869L26.9831 20.2557C26.6419 20.338 26.4003 20.6445 26.4003 20.9958ZM62.729 24.4202C62.729 23.3863 63.7179 22.6394 64.7123 22.9223C65.3816 23.1128 65.8435 23.7241 65.8435 24.4202V30.2446C65.8435 31.4049 64.6206 32.1574 63.5847 31.635C63.0599 31.3702 62.729 30.8325 62.729 30.2446V24.4202ZM56.6868 22.1777C56.6868 21.1438 57.6758 20.397 58.6702 20.6799C59.3395 20.8704 59.8013 21.4817 59.8013 22.1777V28.0022C59.8013 29.1624 58.5785 29.915 57.5426 29.3925C57.0177 29.1278 56.6868 28.5901 56.6868 28.0022V22.1777ZM37.595 22.1777C37.595 21.4817 38.0568 20.8704 38.7262 20.6799C39.7206 20.397 40.7095 21.144 40.7095 22.1777V28.0022C40.7095 28.5901 40.3786 29.1278 39.8537 29.3925C38.818 29.915 37.595 29.1623 37.595 28.0022V22.1777ZM31.5528 24.4202C31.5528 23.7241 32.0147 23.1128 32.684 22.9223C33.6784 22.6394 34.6673 23.3864 34.6673 24.4202V30.2446C34.6673 30.8325 34.3365 31.3702 33.8116 31.635C32.7759 32.1574 31.5528 31.4047 31.5528 30.2446V24.4202Z" fill="#EB268F"/>
<path d="M62.3175 7.82144L49.7568 4.8V13.1206L62.8993 16.2817L62.9008 8.56132C62.9008 8.20888 62.6601 7.90378 62.3175 7.82144ZM58.904 12.099L54.2371 11.0666C53.6941 10.9464 53.3074 10.4649 53.3074 9.90865C53.3074 9.15033 54.0091 8.58686 54.7495 8.75055L59.4164 9.78307C59.9594 9.90329 60.3461 10.3848 60.3461 10.941C60.3461 11.6994 59.6444 12.263 58.904 12.099Z" fill="#EB268F"/>
<path d="M35.0808 7.81497C34.7382 7.89719 34.4966 8.20241 34.4966 8.55385L34.4951 16.2741L47.639 13.1205V4.80063L35.0808 7.81497ZM43.1588 11.0665L38.4919 12.0989C37.7515 12.2628 37.0498 11.6992 37.0498 10.9409C37.0498 10.3847 37.4363 9.90318 37.9795 9.78296L42.6464 8.75044C43.3868 8.58674 44.0885 9.15021 44.0885 9.90853C44.0885 10.4648 43.7019 10.9463 43.1588 11.0665Z" fill="#EB268F"/>
</svg>
