<svg width="97" height="96" viewBox="0 0 97 96" fill="none" xmlns="http://www.w3.org/2000/svg">
<g clipPath="url(#clip0_283_1663)">
<path d="M23.3261 0C10.7261 0 6.04613 4.1625 6.04613 15.36V78.72C6.04613 81.33 6.81113 83.2125 7.96613 84.6V90.24C7.96613 93.4125 10.5536 96 13.7261 96H21.4061C24.5786 96 27.1661 93.4125 27.1661 90.24V88.32H69.4061V90.24C69.4061 93.4125 71.9936 96 75.1661 96H82.8461C86.0186 96 88.6061 93.4125 88.6061 90.24V84.6C89.7611 83.2125 90.5261 81.33 90.5261 78.72V17.28C90.5261 8.9175 89.4911 0 77.0861 0H23.3261ZM29.0861 7.68H69.4061C70.4711 7.68 71.3261 8.5425 71.3261 9.6V13.44C71.3261 14.4975 70.4711 15.36 69.4061 15.36H29.0861C28.0286 15.36 27.1661 14.4975 27.1661 13.44V9.6C27.1661 8.5425 28.0286 7.68 29.0861 7.68ZM21.4061 21.12H75.1661C79.0061 21.12 80.9261 23.04 80.9261 26.88V49.92C80.9261 53.76 77.1761 55.56 75.1661 55.56L21.4061 55.68C17.5661 55.68 15.6461 53.76 15.6461 49.92V26.88C15.6461 23.04 17.5661 21.12 21.4061 21.12ZM4.12613 23.04C2.01113 23.04 0.286133 24.765 0.286133 26.88V42.24C0.286133 44.355 2.01113 46.08 4.12613 46.08V23.04ZM92.4461 23.04V46.08C94.5686 46.08 96.2861 44.355 96.2861 42.24V26.88C96.2861 24.765 94.5686 23.04 92.4461 23.04ZM22.3661 65.28C26.0786 65.28 29.0861 68.2875 29.0861 72C29.0861 75.7125 26.0786 78.72 22.3661 78.72C18.6536 78.72 15.6461 75.7125 15.6461 72C15.6461 68.2875 18.6536 65.28 22.3661 65.28ZM74.2061 65.28C77.9186 65.28 80.9261 68.2875 80.9261 72C80.9261 75.7125 77.9186 78.72 74.2061 78.72C70.4936 78.72 67.4861 75.7125 67.4861 72C67.4861 68.2875 70.4936 65.28 74.2061 65.28Z" fill="#EB268F"/>
</g>
<defs>
<clipPath id="clip0_283_1663">
<rect width="96" height="96" fill="white" transform="translate(0.286133)"/>
</clipPath>
</defs>
</svg>
