<svg width="97" height="96" viewBox="0 0 97 96" fill="none" xmlns="http://www.w3.org/2000/svg">
<g clipPath="url(#clip0_283_1683)">
<path d="M14.2349 11.52C13.7242 11.52 13.2365 11.7215 12.8774 12.0825L7.11742 17.8425C6.64126 18.3206 6.44605 19.0103 6.61117 19.665L8.53117 27.345C8.74621 28.1975 9.51364 28.8 10.3949 28.8H19.9949V32.64H17.3024C13.6773 32.64 10.354 34.6924 8.72617 37.9313L8.78617 37.8188L2.21242 48.99C1.2855 50.5004 0.794922 52.2367 0.794922 54.0075V71.6325C0.794922 74.4646 3.13034 76.8 5.96242 76.8H8.65117C9.57338 82.2302 14.3114 86.4 19.9949 86.4C25.6784 86.4 30.4165 82.2302 31.3387 76.8H66.2512C67.1734 82.2302 71.9114 86.4 77.5949 86.4C83.2785 86.4 88.0165 82.2302 88.9387 76.8H91.0349C94.1942 76.8 96.7949 74.1993 96.7949 71.04V62.1863C96.7949 57.5069 93.3882 53.4882 88.7737 52.7175L72.7837 50.0513L59.4187 36.0525C57.5954 33.8886 54.9081 32.64 52.0799 32.64H50.7149V28.8H60.3149C61.0426 28.8 61.7079 28.3896 62.0324 27.7388L65.8724 20.0588C66.1297 19.5442 66.1404 18.9423 65.9062 18.4163C65.6719 17.8902 65.216 17.4992 64.6612 17.3475L43.5412 11.5875C43.378 11.5433 43.2058 11.52 43.0349 11.52H14.2349ZM23.8349 28.8H46.8749V32.64H23.8349V28.8ZM17.3024 36.48H33.4349V49.92H6.11992L12.1274 39.7125L12.1574 39.6525C13.137 37.7035 15.1215 36.48 17.3024 36.48ZM37.2749 36.48H52.0799C53.7791 36.48 55.3873 37.2278 56.4824 38.5275L56.5199 38.5725L67.3462 49.92H37.2749V36.48ZM19.9949 67.2C24.258 67.2 27.6749 70.6169 27.6749 74.88C27.6749 79.1431 24.258 82.56 19.9949 82.56C15.7318 82.56 12.3149 79.1431 12.3149 74.88C12.3149 70.6169 15.7318 67.2 19.9949 67.2ZM77.5949 67.2C81.858 67.2 85.2749 70.6169 85.2749 74.88C85.2749 79.1431 81.858 82.56 77.5949 82.56C73.3318 82.56 69.9149 79.1431 69.9149 74.88C69.9149 70.6169 73.3318 67.2 77.5949 67.2Z" fill="#EB268F"/>
</g>
<defs>
<clipPath id="clip0_283_1683">
<rect width="96" height="96" fill="white" transform="translate(0.794922)"/>
</clipPath>
</defs>
</svg>
