<svg width="56" height="56" viewBox="0 0 56 56" fill="none" xmlns="http://www.w3.org/2000/svg">
<g clipPath="url(#clip0_283_1976)">
<path d="M49.0003 53.6667C46.597 53.6667 44.1937 53.0833 42.0003 51.9167C37.5903 54.25 32.4103 54.25 28.0003 51.9167C23.5903 54.25 18.4103 54.25 14.0003 51.9167C11.7837 53.0833 9.40366 53.6667 7.00033 53.6667H4.66699V49H7.00033C9.42699 49 11.8537 48.1833 14.0003 46.6667C18.2703 49.7 23.7303 49.7 28.0003 46.6667C32.2703 49.7 37.7303 49.7 42.0003 46.6667C44.1237 48.1833 46.5737 49 49.0003 49H51.3337V53.6667H49.0003ZM39.667 3.5C37.1003 3.5 35.0003 5.6 35.0003 8.16667C35.0003 10.7333 37.1003 12.8333 39.667 12.8333C42.2337 12.8333 44.3337 10.7333 44.3337 8.16667C44.3337 5.6 42.2337 3.5 39.667 3.5ZM33.6703 19.7867L28.4203 23.3333L37.3337 30.3333V39.2933C38.5703 40.18 39.737 41.1133 40.8103 42.0233C39.2237 43.3767 37.1937 44.3333 35.0003 44.3333C32.2003 44.3333 29.7037 42.7933 28.0003 40.8333C26.297 42.7933 23.8003 44.3333 21.0003 44.3333C20.2303 44.3333 19.4837 44.2167 18.7603 44.0067C12.1103 39.4333 7.00033 34.3467 7.00033 30.9867C7.00033 28.5833 9.35699 28 11.317 28C13.6037 28 16.637 28.7233 19.9503 29.9367L18.7137 22.7033C18.457 21.14 19.1337 19.4833 20.5337 18.5267L25.5503 15.1433L20.8837 14.28L14.3037 18.7833L11.667 14.9333L19.8337 9.33333L32.7837 11.7367C33.8337 11.9467 34.9537 12.6 35.6303 13.8133L37.6837 17.43C39.6903 20.9533 43.4937 23.3333 47.8337 23.3333V28C41.7903 28 36.4937 24.6867 33.6703 19.7867ZM24.0337 25.9L25.0603 32.0833C27.207 33.0633 30.847 35.0467 32.667 36.1667V32.6667L24.0337 25.9Z" fill="#EB268F"/>
</g>
<defs>
<clipPath id="clip0_283_1976">
<rect width="56" height="56" fill="white"/>
</clipPath>
</defs>
</svg>
