<svg width="56" height="56" viewBox="0 0 56 56" fill="none" xmlns="http://www.w3.org/2000/svg">
<g clip-path="url(#clip0_283_2005)">
<path d="M37.433 7.17462C27.1794 7.17462 18.8662 -0.590477 18.8662 9.79882C18.8662 11.7375 19.1552 13.9845 19.691 16.3584C22.4227 16.191 25.0593 15.4543 27.4209 14.7987C29.7155 14.159 31.6982 13.6074 33.5364 13.6074C35.7675 13.6074 38.3177 14.4198 39.4474 17.7454C39.4509 17.7349 39.4545 17.712 39.4545 17.712H47.706C47.7853 18.0345 47.8399 18.2231 47.8399 18.4927C47.8399 20.3027 45.933 21.7707 43.582 21.7707C42.0505 21.7707 40.7111 21.1504 39.9585 20.2198C40.0114 20.7468 40.0396 21.3125 40.0396 21.9241C40.0396 23.7904 39.8034 25.9088 39.3558 28.1559C41.7209 28.919 43.5714 30.9158 44.0631 33.4536L42.2232 32.8121C41.6504 31.3617 40.4643 30.2373 39.0139 29.7227C38.2719 32.8509 37.144 36.1554 35.683 39.303C36.2593 39.4211 36.8408 39.4898 37.433 39.4898C47.6866 39.4898 55.9998 20.1881 55.9998 9.79706C55.9998 -0.594001 47.6884 7.17462 37.433 7.17462Z" fill="#EB268F"/>
<path d="M27.7524 17.7227C27.5021 17.7914 27.2483 17.8619 26.991 17.9324C24.462 18.6197 21.5999 19.2965 18.5686 19.2965C8.3132 19.2982 0 11.5384 0 21.9277C0 32.3153 8.3132 51.617 18.5686 51.617C28.8204 51.617 37.1336 32.3153 37.1336 21.9277C37.1336 14.9222 33.355 16.1665 27.7524 17.7227ZM8.18279 31.8183C8.10524 31.6561 8.04884 31.3407 8.04884 31.0675C8.04884 29.261 9.95575 27.8159 12.3085 27.8159C14.6613 27.8159 16.5682 29.2522 16.5682 31.0675C16.5682 31.3336 16.5136 31.6561 16.4343 31.8183H8.18279ZM18.5686 44.9499C14.9098 44.9499 11.8697 42.2411 11.1982 38.8749H25.9389C25.2639 42.2411 22.2255 44.9499 18.5686 44.9499ZM28.838 31.8183H20.59C20.5107 31.6561 20.4561 31.3407 20.4561 31.0675C20.4561 29.261 22.363 27.8159 24.7158 27.8159C27.0686 27.8159 28.9755 29.2522 28.9755 31.0675C28.972 31.3407 28.9191 31.6597 28.838 31.8183Z" fill="#EB268F"/>
</g>
<defs>
<clipPath id="clip0_283_2005">
<rect width="56" height="56" fill="white"/>
</clipPath>
</defs>
</svg>
