<svg width="56" height="56" viewBox="0 0 56 56" fill="none" xmlns="http://www.w3.org/2000/svg">
<g clip-path="url(#clip0_283_1982)">
<path d="M16.3337 21.0001C18.911 21.0001 21.0003 18.9107 21.0003 16.3334C21.0003 13.7561 18.911 11.6667 16.3337 11.6667C13.7563 11.6667 11.667 13.7561 11.667 16.3334C11.667 18.9107 13.7563 21.0001 16.3337 21.0001Z" fill="#EB268F"/>
<path d="M46.667 30.3334V11.2701C46.667 7.63008 43.7037 4.66675 40.0637 4.66675C38.3137 4.66675 36.6337 5.36675 35.397 6.60341L32.4803 9.52008C32.107 9.40341 31.7103 9.33342 31.2903 9.33342C30.357 9.33342 29.4937 9.61342 28.7703 10.0801L35.2103 16.5201C35.677 15.7967 35.957 14.9334 35.957 14.0001C35.957 13.5801 35.887 13.2067 35.7937 12.8101L38.7103 9.89341C39.0603 9.54341 39.5503 9.33342 40.0637 9.33342C41.137 9.33342 42.0003 10.1967 42.0003 11.2701V30.3334H26.017C25.317 29.8434 24.687 29.2834 24.1037 28.6534L20.837 25.0367C20.3937 24.5467 19.8337 24.1501 19.227 23.8701C18.5037 23.5201 17.7103 23.3334 16.8937 23.3334C14.0003 23.3567 11.667 25.6901 11.667 28.5834V30.3334H4.66699V44.3334C4.66699 46.9001 6.76699 49.0001 9.33366 49.0001C9.33366 50.2834 10.3837 51.3334 11.667 51.3334H44.3337C45.617 51.3334 46.667 50.2834 46.667 49.0001C49.2337 49.0001 51.3337 46.9001 51.3337 44.3334V30.3334H46.667Z" fill="#EB268F"/>
</g>
<defs>
<clipPath id="clip0_283_1982">
<rect width="56" height="56" fill="white"/>
</clipPath>
</defs>
</svg>
