<svg width="56" height="56" viewBox="0 0 56 56" fill="none" xmlns="http://www.w3.org/2000/svg">
<g clipPath="url(#clip0_283_2014)">
<path d="M30.7078 9.94192C33.4127 10.2574 35.859 8.29065 36.1664 5.55505C36.4728 2.81765 34.5322 0.345241 31.8236 0.0324721C29.1223 -0.280297 26.6751 1.68465 26.366 4.42115C26.0586 7.15765 28.001 9.62915 30.7078 9.94192Z" fill="#EB268F"/>
<path d="M23.4388 24.2708L27.7211 13.8557L27.9654 14.3866C28.0339 14.538 28.1736 14.6443 28.3376 14.6723C28.362 14.6777 28.3899 14.6786 28.417 14.6786C28.5531 14.6786 28.6838 14.6227 28.7775 14.5227L29.9556 13.2752C30.089 13.1328 30.1268 12.9237 30.0556 12.7416C29.9871 12.5568 29.8114 12.4324 29.6212 12.4234L28.1619 12.3459L27.3876 10.1772C27.3209 9.98526 27.1416 9.85276 26.9379 9.84465C26.7405 9.82572 26.5503 9.95191 26.4664 10.1367L24.9603 13.4464C24.8792 13.6294 24.9098 13.8448 25.0441 13.9954C25.1406 14.1026 25.2767 14.1612 25.4137 14.1612C25.4687 14.1612 25.5227 14.1522 25.5741 14.1342L26.9937 13.3671L21.5586 23.7525L23.4388 24.2708Z" fill="#EB268F"/>
<path d="M40.8727 20.2958C38.8213 20.449 36.768 20.6022 34.7165 20.7573C33.8747 18.6139 32.9418 15.7331 32.1522 14.2865C31.5149 13.1192 30.8137 13.3148 30.3711 14.0855C28.746 16.9175 24.4222 25.7129 24.4222 25.7129L19.9037 24.4889L25.6354 10.2025C25.3596 10.1276 24.698 9.73916 23.5064 10.1385L7.18026 13.9638C5.97786 14.2441 5.22884 15.46 5.50736 16.676C5.78497 17.8928 6.98737 18.6517 8.18977 18.3678L18.9366 15.8512C17.3781 18.6553 15.8756 21.4946 14.4226 24.3555C14.4226 24.3555 6.64306 37.1925 7.82653 37.7189C9.0091 38.2435 14.1576 32.3874 14.1576 32.3874V52.9472C14.1576 54.6327 15.5096 56.0001 17.1762 56.0001C18.8437 56.0001 20.194 54.6327 20.194 52.9472C20.194 52.9472 19.0925 38.4463 23.3352 29.65C27.5769 20.8483 29.23 18.402 29.23 18.402C29.23 18.402 30.8236 22.212 31.468 23.8273C31.7276 24.478 32.1666 25.6877 33.6872 25.5371C36.2704 25.282 38.2886 25.1495 40.879 24.9549C43.8129 24.7304 43.8337 20.074 40.8727 20.2958Z" fill="#EB268F"/>
<path d="M37.883 18.3074C37.5351 18.3074 37.2529 18.5895 37.2529 18.9374C37.2529 19.2862 37.5351 19.5684 37.883 19.5684H49.9205C50.2684 19.5684 50.5506 19.2862 50.5506 18.9374C50.5506 18.5895 50.2684 18.3074 49.9205 18.3074H37.883Z" fill="#EB268F"/>
<path d="M42.1156 17.3473H45.6877C45.9959 17.3473 46.2492 17.1058 46.2645 16.7993L46.5232 11.5913C46.5313 11.4336 46.4736 11.2794 46.3646 11.165C46.2555 11.0505 46.105 10.9856 45.9463 10.9856H41.8569C41.6983 10.9856 41.5478 11.0505 41.4387 11.165C41.3296 11.2794 41.2719 11.4336 41.2801 11.5913L41.5387 16.7993C41.5541 17.1067 41.8073 17.3473 42.1156 17.3473ZM45.9499 11.5661L45.8995 12.553L41.902 12.5107L41.8524 11.5661H45.9499Z" fill="#EB268F"/>
</g>
<defs>
<clipPath id="clip0_283_2014">
<rect width="56" height="56" fill="white"/>
</clipPath>
</defs>
</svg>
