<svg width="56" height="56" viewBox="0 0 56 56" fill="none" xmlns="http://www.w3.org/2000/svg">
<path d="M13.9997 7C7.56667 7 2.33301 12.2337 2.33301 18.6667C2.33301 21.77 3.54036 24.6933 5.8877 27.043L7.71517 28.5651L9.84342 49H19.2041L17.9827 37.3333H20.9997V32.6667H17.4951L17.363 31.4043C17.2486 30.226 18.0308 29.1498 19.1904 28.8978L32.6663 25.9811V11.2702L30.9163 10.7826C23.76 8.78989 17.082 7 13.9997 7ZM44.333 8.09831L37.333 11.1608V26.3138L44.333 29.112V8.09831ZM48.9997 11.6667V16.3333H53.6663V11.6667H48.9997ZM13.9997 14C16.578 14 18.6663 16.0883 18.6663 18.6667C18.6663 21.245 16.578 23.3333 13.9997 23.3333C11.4213 23.3333 9.33301 21.245 9.33301 18.6667C9.33301 16.0883 11.4213 14 13.9997 14ZM48.9997 21V25.6667H53.6663V21H48.9997Z" fill="#EB268F"/>
</svg>
