<svg width="56" height="56" viewBox="0 0 56 56" fill="none" xmlns="http://www.w3.org/2000/svg">
<g clipPath="url(#clip0_283_1996)">
<path d="M42.1397 53.6432H46.013C47.973 53.6432 49.583 52.1499 49.8163 50.2366L53.6663 11.7833H41.9997V2.33325H37.403V11.7833H25.8063L26.5063 17.2433C30.4963 18.3399 34.2297 20.3232 36.4697 22.5166C39.8297 25.8299 42.1397 29.2599 42.1397 34.8599V53.6432ZM2.33301 51.3099V48.9999H37.403V51.3099C37.403 52.5933 36.353 53.6432 35.0463 53.6432H4.68967C3.38301 53.6432 2.33301 52.5933 2.33301 51.3099ZM37.403 34.9766C37.403 16.3099 2.33301 16.3099 2.33301 34.9766H37.403ZM2.37967 39.6666H37.3797V44.3333H2.37967V39.6666Z" fill="#EB268F"/>
</g>
<defs>
<clipPath id="clip0_283_1996">
<rect width="56" height="56" fill="white"/>
</clipPath>
</defs>
</svg>
