<svg width="25" height="25" viewBox="0 0 25 25" fill="none" xmlns="http://www.w3.org/2000/svg">
<g clip-path="url(#clip0_263_709)">
<path d="M12.5322 2.29062C15.7353 2.29062 16.1138 2.29062 17.3876 2.36446C18.1474 2.37491 18.8998 2.5154 19.6122 2.77985C20.1391 2.97609 20.6131 3.2921 20.9968 3.70292C21.4016 4.08819 21.7167 4.55773 21.9199 5.07831C22.1852 5.79366 22.3257 6.54925 22.3353 7.31215C22.3907 8.57677 22.3999 8.95523 22.3999 12.1583C22.3999 15.3614 22.3999 15.7491 22.3353 17.0137C22.3249 17.7735 22.1844 18.5259 21.9199 19.2383C21.7226 19.7579 21.4174 20.2297 21.0244 20.6227C20.6314 21.0158 20.1595 21.321 19.6399 21.5183C18.9275 21.7828 18.1751 21.9232 17.4153 21.9337C16.1415 21.9891 15.763 21.9983 12.5599 21.9983C9.35684 21.9983 8.97838 21.9983 7.71377 21.9337C6.95086 21.9241 6.19527 21.7836 5.47992 21.5183C4.95935 21.3151 4.4898 21 4.10453 20.5952C3.69371 20.2115 3.3777 19.7374 3.18146 19.2106C2.91701 18.4982 2.77652 17.7458 2.76607 16.986C2.71069 15.7214 2.69223 15.3337 2.69223 12.1306C2.69223 8.92754 2.69223 8.54908 2.76607 7.28446C2.77565 6.52156 2.91615 5.76596 3.18146 5.05062C3.37775 4.52648 3.69386 4.05549 4.10453 3.67523C4.48479 3.26455 4.95578 2.94845 5.47992 2.75215C6.19527 2.48685 6.95086 2.34634 7.71377 2.33677C8.97838 2.28138 9.35684 2.26292 12.5599 2.26292M12.5322 0.130615C9.27377 0.130615 8.83992 0.130615 7.58453 0.204461C6.59083 0.222085 5.60744 0.409397 4.67684 0.758308C3.8732 1.05801 3.14525 1.53071 2.54453 2.14292C1.93417 2.74515 1.46176 3.47266 1.15992 4.27523C0.811008 5.20583 0.623697 6.18922 0.606073 7.18292C0.532227 8.43831 0.532227 8.87215 0.532227 12.1306C0.532227 15.3891 0.532227 15.8229 0.606073 17.0783C0.623909 18.075 0.811197 19.0614 1.15992 19.9952C1.46215 20.7949 1.9346 21.5193 2.54453 22.1183C3.1427 22.7336 3.87139 23.2068 4.67684 23.5029C5.608 23.8511 6.59073 24.0414 7.58453 24.066C8.83992 24.1306 9.27377 24.1306 12.5322 24.1306C15.7907 24.1306 16.2245 24.1306 17.4799 24.066C18.4767 24.0412 19.4624 23.8509 20.3968 23.5029C21.1983 23.2042 21.9234 22.7313 22.5199 22.1183C23.1299 21.5193 23.6023 20.7949 23.9045 19.9952C24.2525 19.0608 24.4428 18.0751 24.4676 17.0783C24.5322 15.8229 24.5322 15.3891 24.5322 12.1306C24.5322 8.87215 24.5322 8.43831 24.4676 7.18292C24.443 6.18912 24.2527 5.20639 23.9045 4.27523C23.6027 3.47266 23.1303 2.74515 22.5199 2.14292C21.9209 1.53299 21.1965 1.06054 20.3968 0.758308C19.463 0.409586 18.4766 0.222298 17.4799 0.204461C16.2245 0.130615 15.7907 0.130615 12.5322 0.130615Z" fill="white"/>
<path d="M12.5324 5.97366C11.3124 5.97366 10.1199 6.33553 9.10567 7.01349C8.09145 7.69144 7.30113 8.65501 6.8347 9.78227C6.36827 10.9095 6.2467 12.1498 6.48537 13.3462C6.72404 14.5425 7.31223 15.6412 8.17551 16.5032C9.03878 17.3652 10.1383 17.9517 11.3351 18.1886C12.5318 18.4255 13.7719 18.3021 14.8984 17.8339C16.025 17.3658 16.9874 16.5741 17.6638 15.5588C18.3403 14.5436 18.7003 13.3505 18.6985 12.1306C18.6997 11.3209 18.541 10.519 18.2314 9.77086C17.9219 9.02271 17.4676 8.34308 16.8946 7.771C16.3217 7.19891 15.6414 6.74563 14.8928 6.43719C14.1442 6.12875 13.342 5.97123 12.5324 5.97366ZM12.5324 16.1275C11.7396 16.1275 10.9647 15.8923 10.3057 15.4517C9.6467 15.0111 9.13323 14.3849 8.83028 13.6523C8.52734 12.9197 8.44854 12.1138 8.60387 11.3364C8.7592 10.559 9.14167 9.84521 9.70286 9.28531C10.2641 8.72541 10.9787 8.34459 11.7565 8.19105C12.5342 8.03752 13.34 8.11817 14.0719 8.42281C14.8037 8.72744 15.4288 9.24235 15.8678 9.90237C16.3069 10.5624 16.5403 11.3379 16.5385 12.1306C16.5397 12.657 16.4369 13.1785 16.236 13.6651C16.0351 14.1517 15.7401 14.5938 15.3679 14.9661C14.9956 15.3383 14.5535 15.6334 14.0669 15.8343C13.5803 16.0352 13.0588 16.138 12.5324 16.1367" fill="white"/>
<path d="M20.378 5.72442C20.378 6.00923 20.2936 6.28764 20.1354 6.52445C19.9771 6.76125 19.7522 6.94582 19.4891 7.05481C19.226 7.1638 18.9364 7.19232 18.6571 7.13675C18.3778 7.08119 18.1212 6.94405 17.9198 6.74266C17.7184 6.54127 17.5813 6.28469 17.5257 6.00535C17.4702 5.72602 17.4987 5.43649 17.6077 5.17336C17.7167 4.91023 17.9012 4.68534 18.138 4.52711C18.3748 4.36888 18.6532 4.28442 18.938 4.28442C19.32 4.28442 19.6862 4.43614 19.9563 4.70619C20.2263 4.97624 20.378 5.34251 20.378 5.72442Z" fill="white"/>
</g>
<defs>
<clipPath id="clip0_263_709">
<rect width="24" height="24" fill="white" transform="translate(0.532227 0.130615)"/>
</clipPath>
</defs>
</svg>
