<svg width="25" height="25" viewBox="0 0 25 25" fill="none" xmlns="http://www.w3.org/2000/svg">
<g clipPath="url(#clip0_263_715)">
<path d="M5.97203 8.13391H1.0166V24.1305H5.97203V8.13391Z" fill="white"/>
<path d="M3.46875 6.03469C3.85444 6.03337 4.23608 5.95609 4.5919 5.80727C4.94772 5.65845 5.27074 5.44101 5.54252 5.16735C5.8143 4.8937 6.02952 4.56919 6.17589 4.21236C6.32226 3.85553 6.39691 3.47336 6.39558 3.08768C6.3916 2.50968 6.21656 1.9458 5.89254 1.46715C5.56852 0.988501 5.11003 0.616505 4.57489 0.398072C4.03974 0.17964 3.4519 0.124551 2.88548 0.239752C2.31907 0.354954 1.79945 0.635287 1.39214 1.0454C0.984835 1.45552 0.708079 1.97706 0.596773 2.54425C0.485467 3.11144 0.544595 3.69889 0.7667 4.23252C0.988806 4.76616 1.36394 5.22208 1.84481 5.5428C2.32568 5.86352 2.89074 6.03468 3.46875 6.03469Z" fill="white"/>
<path d="M13.8841 15.7336C13.8841 13.483 14.8934 12.1407 16.9119 12.1407C18.7386 12.1407 19.6167 13.4325 19.6167 15.7336V24.1306H24.5418V14.0381C24.5418 9.75885 22.1095 7.67979 18.7184 7.67979C17.7546 7.66731 16.8039 7.90423 15.9586 8.36754C15.1133 8.83085 14.4022 9.50482 13.8942 10.324V8.13395H9.14062V24.1306H13.8841V15.7336Z" fill="white"/>
</g>
<defs>
<clipPath id="clip0_263_715">
<rect width="23.9899" height="24" fill="white" transform="translate(0.541992 0.130615)"/>
</clipPath>
</defs>
</svg>
