<svg width="45" height="33" viewBox="0 0 45 33" fill="none" xmlns="http://www.w3.org/2000/svg">
<g clip-path="url(#clip0_171_7260)">
<path d="M10.11 0.49999C11.5047 0.492178 12.8845 0.787742 14.1536 1.3662C15.4227 1.94465 16.5509 2.79216 17.46 3.84999C18.4633 4.94984 19.2443 6.23343 19.76 7.62999C20.3178 9.05794 20.606 10.577 20.61 12.11C20.5252 15.5515 19.4488 18.8954 17.51 21.74C15.366 25.0642 12.5319 27.8881 9.19997 30.02C6.2733 31.9467 3.9733 32.9133 2.29997 32.92C1.69277 32.9428 1.10069 32.7275 0.649966 32.32C0.433869 32.115 0.264079 31.8662 0.151976 31.5903C0.0398726 31.3143 -0.0119552 31.0176 -3.4234e-05 30.72C0.0437955 30.1638 0.246036 29.6318 0.582755 29.187C0.919474 28.7422 1.37658 28.4031 1.89997 28.21C4.36878 27.0561 6.61878 25.4828 8.54997 23.56C9.8833 22.1333 10.55 21.0833 10.55 20.41C10.55 19.78 10.05 19.41 9.04997 19.26L8.38997 19.16L7.63997 19.11C5.56044 18.8321 3.67053 17.7563 2.36997 16.11C1.00824 14.3666 0.300556 12.2011 0.369966 9.98999C0.333393 7.60868 1.2308 5.30773 2.86997 3.57999C3.78713 2.57975 4.90774 1.7874 6.15651 1.25615C7.40528 0.724906 8.75329 0.467078 10.11 0.49999Z" fill="#3E4095"/>
<path d="M34.0699 0.499984C35.465 0.490151 36.8454 0.784809 38.1148 1.3634C39.3843 1.94199 40.5122 2.79059 41.4199 3.84998C42.4267 4.94721 43.2082 6.23152 43.7199 7.62998C44.2778 9.05793 44.566 10.5769 44.5699 12.11C44.4852 15.5515 43.4088 18.8953 41.4699 21.74C39.3296 25.0637 36.4988 27.8877 33.1699 30.02C30.2299 31.9466 27.9266 32.9133 26.2599 32.92C25.6532 32.9396 25.0623 32.7247 24.6099 32.32C24.3938 32.115 24.224 31.8662 24.1119 31.5903C23.9998 31.3143 23.948 31.0176 23.9599 30.72C24.0061 30.1645 24.2093 29.6337 24.5457 29.1893C24.8821 28.7449 25.3379 28.4052 25.8599 28.21C28.3315 27.0557 30.5847 25.4825 32.5199 23.56C33.8499 22.13 34.5199 21.08 34.5199 20.41C34.5199 19.74 34.0199 19.41 33.0199 19.26L32.3699 19.16L31.6199 19.11C29.5368 18.8346 27.6429 17.7585 26.3399 16.11C24.9782 14.3666 24.2705 12.2011 24.3399 9.98998C24.3076 7.60944 25.2044 5.31004 26.8399 3.57998C27.7568 2.58206 28.8759 1.79115 30.1227 1.26003C31.3694 0.728916 32.7151 0.469802 34.0699 0.499984Z" fill="#3E4095"/>
</g>
<defs>
<clipPath id="clip0_171_7260">
<rect width="44.57" height="32.42" fill="white" transform="translate(0 0.5)"/>
</clipPath>
</defs>
</svg>
