<svg width="97" height="96" viewBox="0 0 97 96" fill="none" xmlns="http://www.w3.org/2000/svg">
<g clipPath="url(#clip0_283_1690)">
<path d="M7.21201 47.0421C7.6427 46.1016 8.46601 44.5519 9.91913 41.8271C10.5812 40.5761 11.3254 39.1933 12.0872 37.7724H5.41313C2.85263 37.7724 0.77832 39.8467 0.77832 42.4102C0.77832 44.9679 2.85263 47.0421 5.41313 47.0421H7.21201Z" fill="#EB268F"/>
<path d="M92.1436 37.7724H85.4697C86.2344 39.1933 86.9755 40.5761 87.6378 41.8271C89.0909 44.5517 89.9112 46.1016 90.3449 47.0421H92.1438C94.7043 47.0421 96.7786 44.9677 96.7786 42.4102C96.7784 39.8467 94.7043 37.7724 92.1436 37.7724Z" fill="#EB268F"/>
<path d="M8.16406 87.2227C8.16406 90.6739 10.9649 93.4717 14.4131 93.4717C17.8642 93.4717 20.6593 90.6739 20.6593 87.2227V81.3135H8.16406V87.2227Z" fill="#EB268F"/>
<path d="M76.8916 87.2227C76.8916 90.6739 79.6925 93.4717 83.1436 93.4717C86.5947 93.4717 89.3926 90.6739 89.3926 87.2227V81.3135H76.8916V87.2227Z" fill="#EB268F"/>
<path d="M88.5051 48.2079C88.8216 48.2987 76.9386 26.4902 76.3703 25.3125C74.8703 22.1865 71.1613 20.3057 67.546 20.3057C63.3683 20.3057 51.7315 20.3057 51.7315 20.3057C51.7315 20.3057 34.1884 20.3057 30.0079 20.3057C26.3897 20.3057 22.6896 22.1865 21.1866 25.3125C20.6183 26.4902 8.73828 48.2989 9.05178 48.2079C9.05178 48.2079 5.20803 52.0401 4.91496 52.3447C3.29778 54.0849 3.41496 55.5879 3.41496 57.0909C3.41496 57.0909 3.41496 71.2091 3.41496 74.4465C3.41496 77.6867 3.98928 79.4591 7.80959 79.4591H89.7471C93.5674 79.4591 94.1475 77.6867 94.1475 74.4465C94.1475 71.2091 94.1475 57.0909 94.1475 57.0909C94.1475 55.5879 94.2589 54.0851 92.6357 52.3447C92.3547 52.0401 88.5051 48.2079 88.5051 48.2079ZM18.8841 41.5166C18.8841 41.5166 26.5159 27.7704 26.9642 26.8712C27.7376 25.3331 29.935 24.2197 32.182 24.2197H65.3753C67.6253 24.2197 69.8196 25.3331 70.593 26.8712C71.0442 27.7706 78.676 41.5166 78.676 41.5166C79.3791 42.7822 78.7581 45.1378 76.675 45.1378H20.8821C18.799 45.1376 18.181 42.7822 18.8841 41.5166ZM17.8645 72.0879C13.9915 72.0879 10.8508 68.9503 10.8508 65.0771C10.8508 61.2011 13.9915 58.0635 17.8645 58.0635C21.7375 58.0635 24.8753 61.2011 24.8753 65.0771C24.8753 68.9501 21.7375 72.0879 17.8645 72.0879ZM59.425 73.9834C59.425 74.496 59.0089 74.9121 58.4991 74.9121H39.0608C38.5482 74.9121 38.1321 74.496 38.1321 73.9834V65.4199C38.1321 64.9131 38.5482 64.5 39.0608 64.5H58.4993C59.0091 64.5 59.4252 64.9131 59.4252 65.4199V73.9834H59.425ZM79.6926 72.0879C75.8196 72.0879 72.676 68.9503 72.676 65.0771C72.676 61.2011 75.8196 58.0635 79.6926 58.0635C83.5656 58.0635 86.7062 61.2041 86.7062 65.0771C86.7062 68.9501 83.5656 72.0879 79.6926 72.0879Z" fill="#EB268F"/>
<path d="M29.4483 9.23437C29.4513 7.35056 30.9805 5.82131 32.8643 5.81831H64.6925C66.5733 5.82131 68.1027 7.35056 68.1055 9.23437V18.4541H71.3956V9.23437C71.3956 5.53124 68.3956 2.53124 64.6925 2.52824H32.8643C29.1612 2.53124 26.1612 5.53124 26.1582 9.23437V18.4541H29.4483V9.23437Z" fill="#EB268F"/>
<path d="M37.3671 17.4259H39.0341C39.1163 17.4259 39.1689 17.376 39.1689 17.2999V10.5615C39.1689 10.5088 39.1982 10.4824 39.2451 10.4824H41.5069C41.583 10.4824 41.6417 10.4325 41.6417 10.3564V8.95593C41.6417 8.87981 41.583 8.82693 41.5069 8.82693H34.8975C34.8154 8.82693 34.7627 8.87962 34.7627 8.95593V10.3564C34.7627 10.4325 34.8154 10.4824 34.8975 10.4824H37.1563C37.209 10.4824 37.2354 10.5088 37.2354 10.5615V17.2999C37.2353 17.376 37.2879 17.4259 37.3671 17.4259Z" fill="#EB268F"/>
<path d="M45.2982 8.82712C45.2044 8.82712 45.1517 8.87981 45.1253 8.95612L42.052 17.2999C42.0227 17.376 42.052 17.4259 42.1399 17.4259H43.8655C43.9562 17.4259 44.0091 17.3878 44.0354 17.2999L44.5364 15.7941H47.6654L48.1752 17.2999C48.2044 17.3878 48.2573 17.4259 48.351 17.4259H50.0562C50.1499 17.4259 50.1734 17.376 50.1499 17.2999L47.1265 8.95612C47.0972 8.87999 47.0504 8.82712 46.9536 8.82712H45.2982ZM47.1379 14.2149H45.0754L46.089 11.2061H46.1271L47.1379 14.2149Z" fill="#EB268F"/>
<path d="M51.3736 17.4259H53.1901C53.3073 17.4259 53.36 17.3878 53.4128 17.2999L55.0124 14.6807H55.0535L56.6472 17.2999C56.6999 17.3878 56.7468 17.4259 56.87 17.4259H58.6951C58.7918 17.4259 58.8153 17.3497 58.78 17.2734L56.0963 12.9874L58.5895 8.97956C58.6334 8.90343 58.6042 8.82712 58.5134 8.82712H56.6883C56.5827 8.82712 56.53 8.86518 56.4743 8.95612L55.0535 11.2794H55.0124L53.5943 8.95612C53.5445 8.86537 53.4918 8.82712 53.3834 8.82712H51.5553C51.4673 8.82712 51.4381 8.90324 51.4792 8.97956L53.9665 12.9874L51.2977 17.2734C51.2446 17.3496 51.2827 17.4259 51.3736 17.4259Z" fill="#EB268F"/>
<path d="M60.8574 8.95612V17.2999C60.8574 17.376 60.9101 17.4259 60.9864 17.4259H62.6593C62.7354 17.4259 62.7883 17.376 62.7883 17.2999V8.95612C62.7883 8.87999 62.7356 8.82712 62.6593 8.82712H60.9864C60.9101 8.82712 60.8574 8.87981 60.8574 8.95612Z" fill="#EB268F"/>
</g>
<defs>
<clipPath id="clip0_283_1690">
<rect width="96" height="96" fill="white" transform="translate(0.77832)"/>
</clipPath>
</defs>
</svg>
